<svg width="64" height="64" xmlns="http://www.w3.org/2000/svg">

 <g>
  <title>background</title>
  <rect fill="none" id="canvas_background" height="402" width="582" y="-1" x="-1"/>
 </g>
 <g>
  <title>Layer 1</title>
  <path fill="#ffffff" id="Fill-174" d="m32,47.4c-16.2,0 -23.5,-14.3 -23.8,-14.9c-0.2,-0.4 -0.2,-0.8 0,-1.2c0.3,-0.6 7.6,-14.9 23.8,-14.9s23.5,14.3 23.8,14.9c0.2,0.4 0.2,0.8 0,1.2c-0.3,0.7 -7.6,14.9 -23.8,14.9l0,0zm-21.1,-15.4c1.5,2.6 8.4,12.8 21.1,12.8c12.7,0 19.6,-10.2 21.1,-12.8c-1.5,-2.6 -8.4,-12.8 -21.1,-12.8c-12.7,0 -19.6,10.2 -21.1,12.8l0,0z" class="st0"/>
  <path fill="#ffffff" id="Fill-175" d="m32,44.6c-7,0 -12.6,-5.7 -12.6,-12.6s5.7,-12.6 12.6,-12.6s12.6,5.7 12.6,12.6s-5.6,12.6 -12.6,12.6l0,0zm0,-22.6c-5.5,0 -10,4.5 -10,10s4.5,10 10,10s10,-4.5 10,-10s-4.5,-10 -10,-10l0,0z" class="st0"/>
  <path fill="#ffffff" id="Fill-176" d="m32,39c-3.8,0 -7,-3.1 -7,-7c0,-0.7 0.6,-1.3 1.3,-1.3c0.7,0 1.3,0.6 1.3,1.3c0,2.4 1.9,4.3 4.3,4.3s4.3,-1.9 4.3,-4.3s-1.9,-4.3 -4.3,-4.3c-0.7,0 -1.3,-0.6 -1.3,-1.3c0,-0.7 0.6,-1.3 1.3,-1.3c3.8,0 7,3.1 7,7s-3.1,6.9 -6.9,6.9" class="st0"/>
 </g>
</svg>